<svg width="16" height="5" viewBox="0 0 16 5" fill="none" xmlns="http://www.w3.org/2000/svg">
<path d="M1.39004 0.314926C1.37808 0.315023 1.36634 0.318169 1.35594 0.324067L0.534219 0.797035C0.531406 0.798793 0.52918 0.80102 0.526602 0.802895C0.524258 0.804536 0.522031 0.806254 0.519922 0.808051C0.517734 0.810551 0.515703 0.813208 0.513828 0.81602C0.512305 0.818129 0.51043 0.819887 0.509141 0.822114C0.507422 0.825551 0.505977 0.829106 0.504805 0.832778C0.504102 0.83477 0.50293 0.836528 0.502461 0.838637C0.500882 0.844445 0.500055 0.850431 0.5 0.856449V3.67047C0.5 3.69508 0.513125 3.7177 0.534336 3.72989L2.17754 4.67594C2.18117 4.67805 2.18504 4.67922 2.18891 4.68063C2.19066 4.68122 2.19242 4.68227 2.19418 4.68274C2.19996 4.6843 2.20582 4.68508 2.21176 4.68508C2.21769 4.68505 2.2236 4.68426 2.22934 4.68274C2.2309 4.68227 2.23246 4.68164 2.23402 4.68086C2.23801 4.67946 2.24211 4.67817 2.24586 4.67594L3.88918 3.72989C3.89964 3.72393 3.90833 3.7153 3.91437 3.70488C3.9204 3.69446 3.92356 3.68263 3.92352 3.67059V2.77211L4.71078 2.31883C4.72118 2.31277 4.72982 2.30411 4.73584 2.29369C4.74186 2.28327 4.74506 2.27145 4.74512 2.25942V1.32133C4.7451 1.31532 4.74431 1.30933 4.74277 1.30352L4.74031 1.29778C4.73891 1.29426 4.73785 1.29051 4.73586 1.28723C4.73469 1.28489 4.7327 1.28313 4.73117 1.28114C4.72918 1.27844 4.72754 1.27551 4.72508 1.27317C4.7232 1.27118 4.72063 1.26965 4.7184 1.26801C4.71605 1.2659 4.71355 1.26395 4.7109 1.26215L3.88906 0.789067C3.87869 0.783036 3.8669 0.779859 3.8549 0.779859C3.8429 0.779859 3.83112 0.783036 3.82074 0.789067L2.99914 1.26215C2.99641 1.26395 2.99387 1.2659 2.99152 1.26801C2.98918 1.26957 2.98695 1.27125 2.98484 1.27305C2.98266 1.27555 2.98063 1.27821 2.97875 1.28102C2.97723 1.28313 2.97523 1.285 2.97406 1.28723C2.97234 1.29059 2.97086 1.29411 2.96961 1.29778L2.96727 1.30352C2.96573 1.30933 2.96494 1.31532 2.96492 1.32133V2.21981L2.2802 2.61403V0.856449C2.28019 0.850397 2.2794 0.84437 2.27785 0.83852L2.27539 0.832778C2.27398 0.829262 2.27293 0.825512 2.27094 0.822231C2.26977 0.819887 2.26777 0.818129 2.26625 0.81602C2.26437 0.813286 2.26234 0.810629 2.26016 0.808051C2.25805 0.806254 2.25582 0.804536 2.25348 0.802895C2.25113 0.800864 2.24863 0.79891 2.24598 0.797035H2.24586L1.42426 0.324067C1.41382 0.31815 1.40204 0.315003 1.39004 0.314926ZM1.39004 0.462348L2.07441 0.856449L1.39004 1.25043L0.705664 0.856449L1.39004 0.462348ZM3.85496 0.927348L4.53934 1.32145L3.85496 1.71543L3.17059 1.32145L3.85496 0.927348ZM2.1432 0.974809V2.69278L1.74605 2.92153L1.45859 3.08711V1.36914L1.85586 1.14039L2.1432 0.974809ZM0.636875 0.974809L0.924336 1.14039L1.3216 1.36903V3.20582C1.3216 3.2084 1.3223 3.21086 1.32266 3.21344C1.32301 3.21684 1.32313 3.22024 1.32395 3.22352C1.32477 3.22622 1.32629 3.22879 1.32723 3.23137C1.3284 3.23418 1.32922 3.23723 1.33074 3.23993L1.33098 3.24016C1.33238 3.2425 1.33437 3.2445 1.33602 3.24672C1.33773 3.2493 1.33961 3.25172 1.34164 3.25399L1.34188 3.25422C1.34398 3.25602 1.34617 3.25766 1.34844 3.25914C1.35078 3.26125 1.35324 3.26321 1.35582 3.265H1.35617L1.35641 3.26524L2.14332 3.71055V4.49829L0.636992 3.6311L0.636875 0.974809ZM5.83754 1.32168V3.63192H6.92984V3.29196H6.21699V1.32168H5.83754ZM15.1404 1.32168V3.63192H15.5V1.32168H15.1404ZM3.10156 1.43981L3.38926 1.6054L3.78641 1.83403V2.61403L3.49883 2.44856L3.10156 2.21993V1.43981ZM4.60801 1.43981V2.21993L3.92328 2.61414V1.83403L4.32055 1.6054L4.60801 1.43981ZM7.79434 2.05422C7.67777 2.05422 7.57109 2.07571 7.4743 2.11868C7.37998 2.15982 7.29513 2.21993 7.22504 2.29528C7.08311 2.45017 7.00474 2.65285 7.00555 2.86293C7.00555 2.97293 7.0248 3.07633 7.06332 3.17313C7.10071 3.26828 7.15556 3.3556 7.22504 3.43059C7.29434 3.50536 7.37742 3.56418 7.4743 3.60707C7.57109 3.65004 7.67781 3.67153 7.79445 3.67153C7.88469 3.67153 7.97434 3.6495 8.0634 3.60543C8.15246 3.56153 8.22121 3.50102 8.26965 3.42391V3.63192H8.62941V2.09395H8.26965V2.30184C8.22121 2.22489 8.15246 2.16438 8.0634 2.12032C7.97434 2.07633 7.88469 2.05434 7.79445 2.05434L7.79434 2.05422ZM10.7186 2.05422C10.602 2.05422 10.4952 2.07571 10.3984 2.11868C10.3041 2.15983 10.2193 2.21995 10.1492 2.29528C10.0796 2.37072 10.0247 2.45857 9.9875 2.55426C9.94882 2.65255 9.92922 2.75731 9.92973 2.86293C9.92973 2.97293 9.94898 3.07633 9.9875 3.17313C10.0249 3.26828 10.0797 3.3556 10.1492 3.43059C10.2193 3.50588 10.3041 3.56595 10.3984 3.60707C10.4952 3.65004 10.6019 3.67153 10.7186 3.67153C10.8088 3.67153 10.8984 3.6495 10.9876 3.60543C11.0766 3.56153 11.1454 3.50102 11.1938 3.42391V3.63192H11.5536V2.09395H11.1938V2.30184C11.1454 2.22489 11.0766 2.16438 10.9876 2.12032C10.8985 2.07633 10.8089 2.05422 10.7186 2.05422ZM14.1447 2.05434C13.7042 2.05434 13.3556 2.41645 13.3556 2.86293C13.3556 3.35653 13.6931 3.67153 14.1909 3.67153C14.4695 3.67153 14.6473 3.56489 14.8647 3.33286L14.6217 3.14489C14.6216 3.14512 14.4383 3.38571 14.1646 3.38571C13.8464 3.38571 13.7125 3.1293 13.7125 2.99664H14.9059C14.9686 2.48852 14.6346 2.05446 14.1447 2.05446V2.05434ZM8.91324 2.09395V3.63192H9.27301V2.44786H9.89023V2.09395H8.91324ZM11.7271 2.09395L12.3175 3.63192H12.7698L13.3602 2.09395H12.9957L12.5437 3.27168L12.0915 2.09395H11.7271ZM3.03324 2.33852L3.71715 2.73227L3.21535 3.01868L2.21141 3.59172L1.52809 3.205L2.24574 2.7918L3.03324 2.33852ZM14.1419 2.34016C14.5262 2.34016 14.5728 2.69957 14.5755 2.72922H13.7135C13.7162 2.69969 13.7577 2.34016 14.1419 2.34016ZM7.81414 2.3745C7.88234 2.3745 7.94453 2.3877 8.0007 2.41411C8.0568 2.44051 8.10465 2.47567 8.14426 2.51957C8.18387 2.56372 8.21469 2.61543 8.23672 2.67473C8.25859 2.73411 8.26957 2.79684 8.26965 2.86293C8.26965 2.92895 8.25867 2.99165 8.23672 3.05102C8.21598 3.10812 8.18461 3.16077 8.14426 3.20618C8.104 3.25064 8.05517 3.28652 8.0007 3.31165C7.94224 3.33857 7.87851 3.35214 7.81414 3.35137C7.75034 3.35231 7.68715 3.33877 7.62934 3.31176C7.57565 3.28613 7.52748 3.25026 7.48754 3.20618C7.44729 3.16098 7.41642 3.10824 7.39672 3.05102C7.37562 2.99057 7.365 2.92696 7.36531 2.86293C7.36531 2.79684 7.37578 2.73411 7.39672 2.67473C7.41758 2.61543 7.44785 2.56375 7.48754 2.51969C7.52748 2.4756 7.57565 2.43974 7.62934 2.41411C7.68434 2.3877 7.74586 2.3745 7.81414 2.3745ZM10.7383 2.3745C10.8026 2.37371 10.8663 2.38724 10.9248 2.41411C10.981 2.44051 11.0289 2.47567 11.0684 2.51957C11.108 2.56372 11.1388 2.61543 11.1608 2.67473C11.1829 2.735 11.1941 2.79873 11.1938 2.86293C11.1941 2.9271 11.1829 2.99079 11.1608 3.05102C11.1401 3.10811 11.1087 3.16076 11.0684 3.20618C11.0281 3.25065 10.9793 3.28653 10.9248 3.31165C10.8664 3.33854 10.8027 3.35211 10.7384 3.35137C10.6746 3.35233 10.6114 3.33879 10.5535 3.31176C10.4998 3.28614 10.4516 3.25028 10.4116 3.20618C10.3714 3.16097 10.3406 3.10823 10.3209 3.05102C10.2998 2.99057 10.2892 2.92696 10.2895 2.86293C10.2895 2.79684 10.2999 2.73411 10.3208 2.67473C10.3416 2.61543 10.3719 2.56375 10.4116 2.51969C10.4515 2.4756 10.4997 2.43974 10.5534 2.41411C10.6085 2.3877 10.6701 2.3745 10.7383 2.3745ZM3.78652 2.85039V3.63086L2.2802 4.49805V3.7102L3.39582 3.0734L3.78652 2.85039Z" fill="#F0513F"/>
</svg>
