<svg width="16" height="15" viewBox="0 0 16 15" fill="none" xmlns="http://www.w3.org/2000/svg">
<g clip-path="url(#clip0_2002_4)">
<path d="M7.46621 0.00424194C3.65257 0.00424194 3.89068 1.65807 3.89068 1.65807L3.89492 3.37148H7.53421V3.88589H2.44945C2.44945 3.88589 0.00909424 3.60912 0.00909424 7.45707C0.00909424 11.3051 2.13909 11.1687 2.13909 11.1687H3.41027V9.38301C3.41027 9.38301 3.34174 7.25301 5.50627 7.25301H9.1158C9.1158 7.25301 11.1437 7.28577 11.1437 5.29307V1.99824C11.1437 1.99824 11.4517 0.00424194 7.46621 0.00424194ZM5.45951 1.15648C5.54551 1.1564 5.63068 1.17328 5.71014 1.20616C5.78961 1.23903 5.86182 1.28725 5.92263 1.34806C5.98344 1.40887 6.03166 1.48108 6.06453 1.56055C6.09741 1.64001 6.11429 1.72518 6.11421 1.81118C6.11429 1.89718 6.09741 1.98235 6.06453 2.06182C6.03166 2.14129 5.98344 2.21349 5.92263 2.2743C5.86182 2.33511 5.78961 2.38334 5.71014 2.41621C5.63068 2.44908 5.54551 2.46597 5.45951 2.46589C5.37351 2.46597 5.28834 2.44908 5.20887 2.41621C5.1294 2.38334 5.0572 2.33511 4.99639 2.2743C4.93558 2.21349 4.88735 2.14129 4.85448 2.06182C4.8216 1.98235 4.80472 1.89718 4.8048 1.81118C4.80472 1.72518 4.8216 1.64001 4.85448 1.56055C4.88735 1.48108 4.93558 1.40887 4.99639 1.34806C5.0572 1.28725 5.1294 1.23903 5.20887 1.20616C5.28834 1.17328 5.37351 1.1564 5.45951 1.15648Z" fill="url(#paint0_linear_2002_4)"/>
<path d="M7.57452 14.9486C11.3882 14.9486 11.1501 13.2948 11.1501 13.2948L11.1458 11.5814H7.50646V11.067H12.5912C12.5912 11.067 15.0316 11.3438 15.0316 7.49571C15.0316 3.64771 12.9016 3.78418 12.9016 3.78418H11.6304V5.56977C11.6304 5.56977 11.6989 7.69977 9.53441 7.69977H5.92488C5.92488 7.69977 3.89694 7.66701 3.89694 9.65977V12.9547C3.89694 12.9547 3.58899 14.9486 7.57446 14.9486M9.58117 13.7965C9.49517 13.7966 9.41 13.7797 9.33053 13.7468C9.25107 13.7139 9.17886 13.6657 9.11805 13.6049C9.05724 13.5441 9.00902 13.4719 8.97614 13.3924C8.94327 13.3129 8.92639 13.2278 8.92647 13.1418C8.92638 13.0558 8.94326 12.9706 8.97613 12.8911C9.009 12.8116 9.05722 12.7394 9.11803 12.6786C9.17884 12.6178 9.25105 12.5696 9.33052 12.5367C9.40999 12.5038 9.49517 12.4869 9.58117 12.487C9.66717 12.4869 9.75234 12.5038 9.83181 12.5367C9.91128 12.5696 9.98348 12.6178 10.0443 12.6786C10.1051 12.7394 10.1533 12.8116 10.1862 12.8911C10.2191 12.9705 10.236 13.0557 10.2359 13.1417C10.236 13.2277 10.2191 13.3129 10.1862 13.3923C10.1533 13.4718 10.1051 13.544 10.0443 13.6048C9.98348 13.6656 9.91128 13.7139 9.83181 13.7467C9.75234 13.7796 9.66717 13.7966 9.58117 13.7965Z" fill="url(#paint1_linear_2002_4)"/>
</g>
<defs>
<linearGradient id="paint0_linear_2002_4" x1="144.375" y1="134.42" x2="888.843" y2="871.461" gradientUnits="userSpaceOnUse">
<stop stop-color="#387EB8"/>
<stop offset="1" stop-color="#366994"/>
</linearGradient>
<linearGradient id="paint1_linear_2002_4" x1="216.98" y1="233.548" x2="1016.45" y2="989.316" gradientUnits="userSpaceOnUse">
<stop stop-color="#FFE052"/>
<stop offset="1" stop-color="#FFC331"/>
</linearGradient>
<clipPath id="clip0_2002_4">
<rect width="15.06" height="15" fill="white"/>
</clipPath>
</defs>
</svg>
